# xmcd CD database file
#
# Track frame offsets:
#	150
#	24412
#	47084
#	66930
#	87010
#	109846
#	129853
#	158103
#	180159
#	209216
#
# Disc length: 3082 seconds
#
# Revision: 2
# Processed by: cddbd v1.5.1PL2 Copyright (c) Steve Scherf et al.
# Submitted via: freeDBTagger 0.9.2.0
#
DISCID=7e0c080a
DTITLE=井上昌己 - ANNIVERSARY II
DYEAR=2004
DGENRE=misc
TTITLE0=軌道[mi-chi]
TTITLE1=砂に落ちた涙
TTITLE2=FairWay
TTITLE3=Suspicion〜Remix〜
TTITLE4=イヤリングのはずし方
TTITLE5=YELL！〜１６番目の夏〜
TTITLE6=LOVE
TTITLE7=もう一度、抱かれたい
TTITLE8=恋はLiberty
TTITLE9=悪いひと〜もうひとつのBitter〜
EXTD=Track 1
EXTT0=
EXTT1=
EXTT2=
EXTT3=
EXTT4=
EXTT5=
EXTT6=
EXTT7=
EXTT8=
EXTT9=
PLAYORDER=
